<svg id="Layer_1" data-name="Layer 1" xmlns="http://www.w3.org/2000/svg" viewBox="0 0 417.08 151.54"><defs><style>.cls-1{fill:#358060;}.cls-2{fill:#3e8989;}.cls-3{fill:#5bc6d1;}.cls-4{fill:#64c29c;}</style></defs><title>energeticlogo</title><path class="cls-1" d="M47.46,265.53H89.51V276H59.05v17.11H87.76v10.49H59.05v27.05H47.46Z" transform="translate(-47.46 -180.23)"/><path class="cls-1" d="M108.09,312.45a11.26,11.26,0,0,0,3.86,7.73,12.11,12.11,0,0,0,8,2.76,13.26,13.26,0,0,0,7-1.7,19.31,19.31,0,0,0,4.92-4.28l7.91,6a22.39,22.39,0,0,1-8.65,6.81,25.46,25.46,0,0,1-10,2,26.56,26.56,0,0,1-9.38-1.65,22.61,22.61,0,0,1-7.64-4.7,22.2,22.2,0,0,1-5.1-7.31,24.95,24.95,0,0,1,0-19.05,22.2,22.2,0,0,1,5.1-7.31,22.44,22.44,0,0,1,7.64-4.69,26.34,26.34,0,0,1,9.38-1.66,21.49,21.49,0,0,1,8.42,1.61,17.83,17.83,0,0,1,6.53,4.65,21.56,21.56,0,0,1,4.24,7.49,31.92,31.92,0,0,1,1.51,10.26v3Zm22.64-8.28a10.44,10.44,0,0,0-3-7.68c-2-1.87-4.69-2.81-8.19-2.81a10.74,10.74,0,0,0-7.87,2.85,12.75,12.75,0,0,0-3.54,7.64Z" transform="translate(-47.46 -180.23)"/><path class="cls-1" d="M152.25,265.53h11v65.14h-11Z" transform="translate(-47.46 -180.23)"/><path class="cls-1" d="M176.27,265.53h11v65.14h-11Z" transform="translate(-47.46 -180.23)"/><path class="cls-1" d="M208.84,312.45a11.18,11.18,0,0,0,3.86,7.73,12.1,12.1,0,0,0,8,2.76,13.21,13.21,0,0,0,7-1.7,19.31,19.31,0,0,0,4.92-4.28l7.92,6a22.46,22.46,0,0,1-8.65,6.81,25.5,25.5,0,0,1-10,2,26.66,26.66,0,0,1-9.39-1.65,22.47,22.47,0,0,1-7.63-4.7,22.23,22.23,0,0,1-5.11-7.31,24.95,24.95,0,0,1,0-19.05,22,22,0,0,1,12.74-12,26.44,26.44,0,0,1,9.39-1.66,21.56,21.56,0,0,1,8.42,1.61,18,18,0,0,1,6.53,4.65,21.38,21.38,0,0,1,4.23,7.49,31.91,31.91,0,0,1,1.52,10.26v3Zm22.63-8.28a10.4,10.4,0,0,0-3-7.68q-2.94-2.81-8.19-2.81a10.72,10.72,0,0,0-7.86,2.85,12.69,12.69,0,0,0-3.54,7.64Z" transform="translate(-47.46 -180.23)"/><path class="cls-1" d="M252.81,286.5h11v7H264a13.79,13.79,0,0,1,5.24-6,14.53,14.53,0,0,1,7.83-2.12,10.69,10.69,0,0,1,2,.18c.65.13,1.31.28,2,.46v10.68c-.92-.25-1.82-.45-2.71-.6a15.82,15.82,0,0,0-2.62-.23,11.91,11.91,0,0,0-6.22,1.42,11.43,11.43,0,0,0-3.58,3.27,10.91,10.91,0,0,0-1.66,3.68,13.75,13.75,0,0,0-.42,2.76v23.65h-11Z" transform="translate(-47.46 -180.23)"/><path class="cls-1" d="M299.65,292.67h.18a13,13,0,0,1,4.55-5,14.55,14.55,0,0,1,8.42-2.25,17.29,17.29,0,0,1,7.5,1.47,14.1,14.1,0,0,1,5,3.87,14.79,14.79,0,0,1,2.76,5.52,25.46,25.46,0,0,1,.82,6.53v27.88h-11V308.31c0-1.23-.06-2.59-.18-4.09a14.66,14.66,0,0,0-1-4.24,7.92,7.92,0,0,0-2.44-3.31,7,7,0,0,0-4.5-1.33,10.48,10.48,0,0,0-4.65.92,8.91,8.91,0,0,0-3.13,2.48,9.85,9.85,0,0,0-1.79,3.59,15.93,15.93,0,0,0-.55,4.23v24.11h-11V261.11h11Z" transform="translate(-47.46 -180.23)"/><path class="cls-1" d="M339.21,308.59a23.53,23.53,0,0,1,1.88-9.53,22,22,0,0,1,12.75-12,27.36,27.36,0,0,1,18.77,0,22,22,0,0,1,12.74,12,24.95,24.95,0,0,1,0,19.05,22.23,22.23,0,0,1-5.11,7.31,22.47,22.47,0,0,1-7.63,4.7,27.52,27.52,0,0,1-18.77,0,22.52,22.52,0,0,1-7.64-4.7,22.23,22.23,0,0,1-5.11-7.31A23.48,23.48,0,0,1,339.21,308.59Zm11,0a14.39,14.39,0,0,0,.87,5,12.37,12.37,0,0,0,2.58,4.24,13,13,0,0,0,4.09,2.94,13.05,13.05,0,0,0,14.95-2.94,12.37,12.37,0,0,0,2.58-4.24,14.6,14.6,0,0,0,0-9.93,12.37,12.37,0,0,0-2.58-4.24,13.05,13.05,0,0,0-19,0,12.37,12.37,0,0,0-2.58,4.24A14.4,14.4,0,0,0,350.25,308.59Z" transform="translate(-47.46 -180.23)"/><path class="cls-1" d="M401.5,295.89h-9.11V286.5h9.11v-6.25a49.14,49.14,0,0,1,.64-8.33,16.25,16.25,0,0,1,2.44-6.39,11.4,11.4,0,0,1,5-4.1A20.92,20.92,0,0,1,418,260a35.67,35.67,0,0,1,7,.64l-.74,9.38c-.8-.18-1.56-.33-2.3-.46a14.29,14.29,0,0,0-2.3-.18,7.86,7.86,0,0,0-3.68.74,5.64,5.64,0,0,0-2.16,2,7.25,7.25,0,0,0-1,2.9,24.5,24.5,0,0,0-.23,3.5v8h10.21v9.39H412.54v34.78h-11Z" transform="translate(-47.46 -180.23)"/><path class="cls-1" d="M438.23,295.89h-9.11V286.5h9.11v-6.25a49.14,49.14,0,0,1,.64-8.33,16.25,16.25,0,0,1,2.44-6.39,11.4,11.4,0,0,1,5-4.1,20.9,20.9,0,0,1,8.37-1.42,35.7,35.7,0,0,1,7,.64L461,270c-.8-.18-1.56-.33-2.3-.46a14.29,14.29,0,0,0-2.3-.18,7.86,7.86,0,0,0-3.68.74,5.64,5.64,0,0,0-2.16,2,7.25,7.25,0,0,0-1,2.9,24.5,24.5,0,0,0-.23,3.5v8h10.21v9.39H449.27v34.78h-11Z" transform="translate(-47.46 -180.23)"/><path class="cls-2" d="M47.46,183.08H59.05V209H89.51V183.08H101.1v65.14H89.51v-28.7H59.05v28.7H47.46Z" transform="translate(-47.46 -180.23)"/><path class="cls-2" d="M123.46,230a11.2,11.2,0,0,0,3.86,7.73,12.11,12.11,0,0,0,8,2.76,13.1,13.1,0,0,0,6.94-1.71,19.11,19.11,0,0,0,4.92-4.28l7.92,6a22.33,22.33,0,0,1-8.65,6.8,25.47,25.47,0,0,1-10,2,26.44,26.44,0,0,1-9.39-1.66,22.45,22.45,0,0,1-7.63-4.69,22.17,22.17,0,0,1-5.11-7.32,25,25,0,0,1,0-19,22.37,22.37,0,0,1,5.11-7.32,22.61,22.61,0,0,1,7.63-4.69,26.66,26.66,0,0,1,9.39-1.65,21.35,21.35,0,0,1,8.42,1.61,18.09,18.09,0,0,1,6.53,4.64,21.52,21.52,0,0,1,4.23,7.5A31.64,31.64,0,0,1,157.13,227v3Zm22.63-8.28a10.4,10.4,0,0,0-3-7.69q-2.94-2.81-8.18-2.8a10.72,10.72,0,0,0-7.87,2.85,12.69,12.69,0,0,0-3.54,7.64Z" transform="translate(-47.46 -180.23)"/><path class="cls-2" d="M167.44,204.06h10.48v7.09h.19a15.47,15.47,0,0,1,4.78-5.76q3.23-2.43,8.74-2.43a17.29,17.29,0,0,1,7.5,1.47,14.19,14.19,0,0,1,5,3.86,14.94,14.94,0,0,1,2.76,5.52,25.59,25.59,0,0,1,.82,6.54v27.87h-11V225.87c0-1.23-.06-2.59-.18-4.1a14.67,14.67,0,0,0-1-4.23,7.92,7.92,0,0,0-2.43-3.31,7,7,0,0,0-4.51-1.34,10.62,10.62,0,0,0-4.65.92,9.05,9.05,0,0,0-3.13,2.49,9.85,9.85,0,0,0-1.79,3.59,15.93,15.93,0,0,0-.55,4.23v24.1h-11Z" transform="translate(-47.46 -180.23)"/><path class="cls-2" d="M217.25,204.06h11v7h.18a13.93,13.93,0,0,1,5.25-6,14.47,14.47,0,0,1,7.82-2.11,10.69,10.69,0,0,1,2,.18c.65.12,1.31.28,2,.46v10.67c-.92-.24-1.82-.44-2.71-.59a14.82,14.82,0,0,0-2.62-.23,11.85,11.85,0,0,0-6.21,1.42,11.24,11.24,0,0,0-3.59,3.27,10.91,10.91,0,0,0-1.66,3.68,14.33,14.33,0,0,0-.41,2.76v23.64h-11Z" transform="translate(-47.46 -180.23)"/><path class="cls-2" d="M251.06,204.06H263.2l12.33,30.64h.18l11-30.64h11.51L277.37,257.7a34.6,34.6,0,0,1-2.62,5.48,15.65,15.65,0,0,1-3.36,3.95,12.77,12.77,0,0,1-4.55,2.39,22.3,22.3,0,0,1-6.31.79,32.53,32.53,0,0,1-8.46-1.11l1.38-9.93a26.06,26.06,0,0,0,2.71.78,13.42,13.42,0,0,0,2.9.32,13.17,13.17,0,0,0,3.4-.37,6.15,6.15,0,0,0,2.35-1.15,6.39,6.39,0,0,0,1.61-2c.43-.83.89-1.83,1.38-3l2.12-5.25Z" transform="translate(-47.46 -180.23)"/><path class="cls-3" d="M50.31,180.23h11.6v25.94H92.36V180.23H104v65.14H92.36V216.66H61.91v28.71H50.31Z" transform="translate(-47.46 -180.23)"/><path class="cls-3" d="M126.31,227.15a11.23,11.23,0,0,0,3.87,7.73,12.06,12.06,0,0,0,8,2.76,13.26,13.26,0,0,0,6.95-1.7,19.31,19.31,0,0,0,4.92-4.28l7.91,6a22.46,22.46,0,0,1-8.65,6.81,25.46,25.46,0,0,1-10,2,26.56,26.56,0,0,1-9.38-1.65,22.52,22.52,0,0,1-7.64-4.7,22.05,22.05,0,0,1-5.1-7.31,24.95,24.95,0,0,1,0-19.05,22.05,22.05,0,0,1,5.1-7.31,22.5,22.5,0,0,1,7.64-4.69,26.34,26.34,0,0,1,9.38-1.66,21.49,21.49,0,0,1,8.42,1.61,18,18,0,0,1,6.53,4.65,21.51,21.51,0,0,1,4.24,7.5A31.83,31.83,0,0,1,160,224.12v3Zm22.63-8.28a10.39,10.39,0,0,0-3-7.68c-2-1.87-4.69-2.81-8.19-2.81a10.74,10.74,0,0,0-7.87,2.85,12.77,12.77,0,0,0-3.54,7.64Z" transform="translate(-47.46 -180.23)"/><path class="cls-3" d="M170.29,201.21h10.49v7.08H181a15.47,15.47,0,0,1,4.79-5.75c2.14-1.62,5.06-2.44,8.74-2.44a17.35,17.35,0,0,1,7.5,1.47,14.27,14.27,0,0,1,5,3.87,14.5,14.5,0,0,1,2.76,5.52,25.46,25.46,0,0,1,.83,6.53v27.88h-11V223c0-1.23-.06-2.59-.19-4.09a14.66,14.66,0,0,0-1-4.24,8,8,0,0,0-2.44-3.31,7,7,0,0,0-4.51-1.33,10.62,10.62,0,0,0-4.65.92,8.88,8.88,0,0,0-3.12,2.48,10,10,0,0,0-1.8,3.59,15.93,15.93,0,0,0-.55,4.23v24.11h-11Z" transform="translate(-47.46 -180.23)"/><path class="cls-3" d="M220.1,201.21h11v7h.18a13.87,13.87,0,0,1,5.25-6,14.52,14.52,0,0,1,7.82-2.12,10.07,10.07,0,0,1,2,.19c.64.12,1.3.27,2,.46v10.67c-.92-.25-1.83-.45-2.72-.6a15.73,15.73,0,0,0-2.62-.23A11.84,11.84,0,0,0,236.8,212a11.45,11.45,0,0,0-3.59,3.26,11,11,0,0,0-1.66,3.68,14.33,14.33,0,0,0-.41,2.76v23.65h-11Z" transform="translate(-47.46 -180.23)"/><path class="cls-3" d="M253.91,201.21h12.14l12.33,30.63h.19l11-30.63h11.5l-20.89,53.64a33.22,33.22,0,0,1-2.62,5.47,15.88,15.88,0,0,1-3.36,4,12.69,12.69,0,0,1-4.55,2.39,22.3,22.3,0,0,1-6.3.78,33,33,0,0,1-8.47-1.1l1.38-9.94a21.59,21.59,0,0,0,2.72.78,12.74,12.74,0,0,0,2.89.32,13.76,13.76,0,0,0,3.41-.36,6.25,6.25,0,0,0,2.34-1.15,6.46,6.46,0,0,0,1.62-2c.42-.83.88-1.82,1.38-3l2.11-5.24Z" transform="translate(-47.46 -180.23)"/><path class="cls-4" d="M50.31,262.67H92.36v10.49H61.91v17.11h28.7v10.49H61.91v27.05H50.31Z" transform="translate(-47.46 -180.23)"/><path class="cls-4" d="M110.94,309.6a11.25,11.25,0,0,0,3.87,7.73,12.13,12.13,0,0,0,8,2.75,13.14,13.14,0,0,0,6.95-1.7,19.11,19.11,0,0,0,4.92-4.28l7.92,6a22.36,22.36,0,0,1-8.65,6.81,25.51,25.51,0,0,1-10,2,26.44,26.44,0,0,1-9.39-1.66,22,22,0,0,1-12.74-12,24.92,24.92,0,0,1,0-19,22.23,22.23,0,0,1,5.11-7.31,22.47,22.47,0,0,1,7.63-4.7,26.66,26.66,0,0,1,9.39-1.65,21.38,21.38,0,0,1,8.42,1.61,18.09,18.09,0,0,1,6.53,4.64,21.52,21.52,0,0,1,4.23,7.5,31.91,31.91,0,0,1,1.52,10.26v3Zm22.64-8.28a10.41,10.41,0,0,0-3-7.69q-2.94-2.81-8.19-2.8a10.72,10.72,0,0,0-7.86,2.85,12.7,12.7,0,0,0-3.55,7.64Z" transform="translate(-47.46 -180.23)"/><path class="cls-4" d="M155.11,262.67h11v65.14h-11Z" transform="translate(-47.46 -180.23)"/><path class="cls-4" d="M179.12,262.67h11v65.14h-11Z" transform="translate(-47.46 -180.23)"/><path class="cls-4" d="M211.69,309.6a11.28,11.28,0,0,0,3.86,7.73,12.15,12.15,0,0,0,8,2.75,13.16,13.16,0,0,0,6.95-1.7,19.11,19.11,0,0,0,4.92-4.28l7.91,6a22.36,22.36,0,0,1-8.65,6.81,25.47,25.47,0,0,1-10,2,26.34,26.34,0,0,1-9.38-1.66,22.5,22.5,0,0,1-7.64-4.69,22.1,22.1,0,0,1-5.1-7.32,24.92,24.92,0,0,1,0-19,22.05,22.05,0,0,1,5.1-7.31,22.52,22.52,0,0,1,7.64-4.7,26.56,26.56,0,0,1,9.38-1.65,21.35,21.35,0,0,1,8.42,1.61,18,18,0,0,1,6.53,4.64,21.7,21.7,0,0,1,4.24,7.5,31.92,31.92,0,0,1,1.51,10.26v3Zm22.63-8.28a10.4,10.4,0,0,0-3-7.69q-3-2.81-8.19-2.8a10.74,10.74,0,0,0-7.87,2.85,12.75,12.75,0,0,0-3.54,7.64Z" transform="translate(-47.46 -180.23)"/><path class="cls-4" d="M255.67,283.65h11v7h.18a13.93,13.93,0,0,1,5.25-6,14.52,14.52,0,0,1,7.82-2.11,10.88,10.88,0,0,1,2,.18c.64.12,1.3.28,2,.46v10.67c-.92-.24-1.83-.44-2.72-.6a15.73,15.73,0,0,0-2.62-.23,11.84,11.84,0,0,0-6.21,1.43,11.24,11.24,0,0,0-3.59,3.27,10.83,10.83,0,0,0-1.66,3.68,14.33,14.33,0,0,0-.41,2.76v23.64h-11Z" transform="translate(-47.46 -180.23)"/><path class="cls-4" d="M302.5,289.81h.18a12.86,12.86,0,0,1,4.56-5,14.53,14.53,0,0,1,8.42-2.25,17.35,17.35,0,0,1,7.5,1.47,14.25,14.25,0,0,1,5,3.86,14.65,14.65,0,0,1,2.76,5.52,25.57,25.57,0,0,1,.83,6.53v27.88h-11V305.45c0-1.22-.06-2.58-.19-4.09a14.67,14.67,0,0,0-1-4.23,7.94,7.94,0,0,0-2.44-3.31,7,7,0,0,0-4.51-1.34,10.62,10.62,0,0,0-4.65.92,8.9,8.9,0,0,0-3.12,2.49,9.91,9.91,0,0,0-1.8,3.58,16.06,16.06,0,0,0-.55,4.24v24.1h-11V258.26h11Z" transform="translate(-47.46 -180.23)"/><path class="cls-4" d="M342.06,305.73a23.32,23.32,0,0,1,1.89-9.52,22.35,22.35,0,0,1,5.1-7.31,22.61,22.61,0,0,1,7.64-4.7,27.52,27.52,0,0,1,18.77,0,22.61,22.61,0,0,1,7.64,4.7,22.2,22.2,0,0,1,5.1,7.31,24.92,24.92,0,0,1,0,19,22.24,22.24,0,0,1-5.1,7.32,22.59,22.59,0,0,1-7.64,4.69,27.36,27.36,0,0,1-18.77,0,21.88,21.88,0,0,1-12.74-12A23.28,23.28,0,0,1,342.06,305.73Zm11,0a14.22,14.22,0,0,0,.88,5,12.36,12.36,0,0,0,2.57,4.23,13,13,0,0,0,19.05,0,12.36,12.36,0,0,0,2.57-4.23,14.47,14.47,0,0,0,0-9.94,12.55,12.55,0,0,0-2.57-4.23,13.07,13.07,0,0,0-19.05,0,12.55,12.55,0,0,0-2.57,4.23A14.26,14.26,0,0,0,353.1,305.73Z" transform="translate(-47.46 -180.23)"/><path class="cls-4" d="M404.35,293h-9.11v-9.38h9.11v-6.26a49,49,0,0,1,.64-8.32,16.39,16.39,0,0,1,2.44-6.4,11.47,11.47,0,0,1,5-4.09,20.82,20.82,0,0,1,8.37-1.43,35.64,35.64,0,0,1,7,.65l-.74,9.38c-.79-.18-1.56-.34-2.29-.46a14.42,14.42,0,0,0-2.31-.18,7.79,7.79,0,0,0-3.67.73,5.62,5.62,0,0,0-2.17,2,7.19,7.19,0,0,0-1,2.9,25.94,25.94,0,0,0-.23,3.5v8H425.6V293H415.39v34.78h-11Z" transform="translate(-47.46 -180.23)"/><path class="cls-4" d="M441.08,293H432v-9.38h9.11v-6.26a49,49,0,0,1,.64-8.32,16.24,16.24,0,0,1,2.44-6.4,11.49,11.49,0,0,1,5-4.09,20.9,20.9,0,0,1,8.38-1.43,35.64,35.64,0,0,1,7,.65l-.74,9.38c-.79-.18-1.56-.34-2.3-.46a14.2,14.2,0,0,0-2.3-.18,7.86,7.86,0,0,0-3.68.73,5.59,5.59,0,0,0-2.16,2,7.19,7.19,0,0,0-1,2.9,25.94,25.94,0,0,0-.23,3.5v8h10.21V293H452.12v34.78h-11Z" transform="translate(-47.46 -180.23)"/></svg>